<?xml version="1.0" standalone="no"?>
<!DOCTYPE svg PUBLIC "-//W3C//DTD SVG 20010904//EN"
 "http://www.w3.org/TR/2001/REC-SVG-20010904/DTD/svg10.dtd">
<svg version="1.0" xmlns="http://www.w3.org/2000/svg"
 width="1056.000000pt" height="992.000000pt" viewBox="0 0 1056.000000 992.000000"
 preserveAspectRatio="xMidYMid meet">
<metadata>
Created by potrace 1.16, written by Peter Selinger 2001-2019
</metadata>
<g transform="translate(0.000000,992.000000) scale(0.100000,-0.100000)"
stroke="none">
<path fill="#E0A419" d="M0 4960 l0 -4960 5280 0 5280 0 0 4960 0 4960 -5280 0 -5280 0 0
-4960z m4804 2799 c464 -35 862 -139 1266 -331 226 -107 490 -276 665 -426
105 -89 326 -318 397 -409 47 -62 87 -103 97 -103 10 0 60 23 112 50 52 28
153 80 224 117 72 36 159 81 193 100 35 19 68 31 72 27 9 -10 25 -229 41 -589
14 -296 -3 -3875 -19 -3875 -2 0 -59 31 -126 69 -192 109 -404 225 -496 271
-47 23 -98 52 -114 63 l-29 21 7 465 c4 256 9 582 12 724 3 174 1 264 -6 278
-11 19 -17 20 -283 13 -150 -3 -275 -9 -279 -13 -3 -3 -8 -258 -10 -566 l-5
-560 -94 -7 c-187 -14 -1303 -36 -1404 -28 -139 12 -337 38 -420 56 -105 23
-292 82 -365 116 -71 33 -210 121 -261 165 -96 83 -127 115 -181 186 -85 115
-121 182 -179 335 -6 18 -15 29 -18 24 -3 -6 -3 -133 0 -283 4 -151 7 -391 8
-535 l1 -261 323 -7 c177 -3 609 -9 960 -12 l637 -7 0 -238 c0 -130 -3 -245
-6 -253 -6 -15 -30 -16 -223 -11 -119 3 -684 7 -1256 10 -811 4 -1042 8 -1051
18 -13 14 -34 779 -34 1217 0 146 -4 270 -8 275 -4 6 -56 46 -117 90 -60 43
-195 139 -299 213 l-188 135 78 76 c79 75 212 201 291 275 l41 38 34 -25 c18
-14 182 -137 363 -273 182 -136 343 -258 358 -271 16 -12 33 -23 38 -23 5 0 9
33 9 73 l0 74 242 6 c133 4 283 7 335 7 l93 0 0 -52 c1 -172 58 -317 170 -428
76 -77 186 -138 306 -171 77 -21 88 -22 509 -15 237 4 451 9 478 12 l47 6 0
632 c1 554 9 1499 13 1502 1 1 92 48 202 105 110 57 254 132 320 166 66 35
180 94 253 130 72 37 132 72 132 77 0 20 -150 205 -235 291 -143 142 -230 216
-365 307 -160 109 -200 131 -402 222 -160 72 -241 100 -428 145 -396 97 -921
87 -1354 -25 -75 -19 -311 -111 -396 -154 -36 -18 -105 -59 -153 -92 -60 -40
-94 -57 -107 -53 -10 3 -34 25 -53 48 -19 23 -55 63 -79 88 -184 197 -249 270
-244 277 8 13 200 120 333 186 407 203 876 309 1432 324 30 1 118 -3 195 -9z
m-2947 -749 c127 -45 221 -135 260 -249 l22 -66 844 -3 845 -2 11 44 c11 46
66 126 110 161 161 129 395 124 527 -10 110 -114 141 -269 78 -401 -30 -63
-110 -141 -181 -176 -55 -27 -80 -33 -155 -36 -74 -4 -99 -1 -151 18 -110 39
-187 115 -224 220 l-17 47 -350 6 c-416 8 -1087 7 -1239 -2 l-109 -6 -12 -37
c-23 -66 -67 -128 -114 -163 -119 -86 -224 -115 -354 -96 -152 21 -267 102
-326 229 -23 49 -27 70 -27 152 0 83 4 103 27 153 29 62 116 155 171 184 106
55 261 69 364 33z m3808 -100 c60 -29 126 -93 156 -152 18 -34 23 -60 23 -123
1 -96 -13 -139 -65 -205 -84 -106 -246 -148 -384 -99 l-66 23 -87 -85 c-48
-47 -140 -137 -205 -200 l-119 -115 42 -79 c42 -79 42 -79 38 -175 -2 -77 -8
-104 -28 -144 -29 -57 -105 -145 -144 -165 -14 -8 -26 -20 -26 -26 0 -6 38
-94 84 -195 l84 -184 88 -1 c81 0 95 -3 159 -35 208 -105 234 -370 50 -512
-127 -97 -332 -89 -446 19 -60 55 -106 188 -93 262 10 53 49 125 90 167 l37
36 -51 117 c-129 294 -119 276 -149 274 -232 -17 -355 20 -469 139 -76 79
-107 151 -108 254 0 65 4 80 41 155 44 90 67 115 151 173 137 92 351 103 505
25 22 -12 43 -16 51 -12 7 4 102 94 210 199 l197 192 -27 78 c-42 127 -22 227
64 317 78 81 146 108 262 104 66 -2 96 -7 135 -27z m2542 -176 c81 -42 195
-101 253 -131 445 -234 506 -267 638 -339 24 -13 100 -54 170 -90 70 -37 136
-72 148 -80 11 -7 83 -45 160 -85 76 -39 144 -75 149 -79 6 -4 77 -42 159 -84
82 -42 179 -95 217 -116 37 -22 79 -44 93 -49 l25 -10 -6 -173 c-3 -95 -8
-213 -12 -263 l-6 -90 -70 -6 c-38 -4 -222 -10 -408 -14 l-338 -7 7 73 c11
107 11 121 -6 130 -54 31 -509 269 -519 271 -9 2 -12 -76 -12 -314 0 -175 1
-322 1 -327 0 -4 292 -10 650 -13 471 -4 653 -8 663 -17 23 -18 28 -656 11
-1146 -8 -220 -18 -403 -22 -407 -17 -17 -2102 -1052 -2107 -1046 -11 13 -38
865 -39 1233 l-1 450 130 -1 c72 -1 258 -2 414 -3 l284 -1 -7 -220 c-4 -121
-5 -220 -1 -220 4 0 97 44 208 98 111 54 228 109 261 122 35 15 61 33 66 45 4
11 10 95 14 188 l6 167 -523 0 c-288 0 -599 3 -690 7 l-167 6 -12 38 c-8 29
-8 117 1 356 6 175 16 527 21 783 5 256 12 503 15 550 2 47 7 193 10 325 6
290 16 565 20 565 2 0 70 -34 152 -76z m-4855 -636 c128 -41 194 -98 258 -221
33 -65 40 -88 40 -137 0 -121 -58 -237 -153 -310 -115 -87 -243 -122 -367
-101 -86 14 -147 41 -223 99 -69 52 -100 96 -122 174 -9 31 -21 58 -28 60 -7
1 -338 3 -736 3 -633 0 -725 -2 -731 -15 -4 -8 -18 -39 -31 -68 -14 -32 -46
-76 -82 -112 -48 -47 -74 -64 -133 -86 -64 -23 -85 -26 -157 -22 -162 8 -280
91 -332 231 -67 184 3 372 169 456 124 62 240 64 362 4 98 -48 158 -123 198
-245 5 -17 49 -18 745 -18 l739 0 17 53 c33 101 97 173 206 227 122 62 233 71
361 28z m-1275 -942 c71 -22 170 -92 215 -151 20 -26 44 -74 53 -106 l16 -59
569 0 569 0 34 73 c44 96 82 137 169 183 71 38 76 39 173 39 88 0 107 -3 158
-27 73 -34 99 -55 144 -113 82 -109 95 -245 34 -369 -87 -177 -324 -255 -501
-166 -103 52 -151 108 -199 233 l-11 28 -567 -3 -567 -3 -26 -65 c-35 -90 -53
-114 -126 -166 -148 -106 -331 -122 -485 -44 -62 32 -146 117 -174 176 -37 78
-50 159 -36 226 33 156 142 272 305 320 72 21 173 19 253 -6z"/>
<path fill="#E0A419" d="M6910 5494 c-102 -63 -226 -138 -277 -166 l-92 -51 -3 -147 c-2 -81
-2 -155 0 -164 3 -14 32 -16 283 -16 153 0 279 3 279 8 0 4 2 88 4 187 9 371
9 459 0 462 -5 1 -92 -50 -194 -113z"/>
<path fill="#E0A419" d="M1619 6896 c-126 -45 -203 -142 -202 -256 0 -108 49 -180 158 -231
50 -24 73 -29 136 -29 93 0 129 11 197 63 137 104 147 253 24 376 -80 80 -213
113 -313 77z"/>
<path fill="#E0A419" d="M4105 6846 c-61 -29 -132 -100 -145 -146 -16 -55 -12 -127 9 -169 43
-83 135 -141 226 -141 85 0 189 56 234 125 22 34 26 51 25 110 -1 116 -49 182
-164 226 -67 25 -124 24 -185 -5z"/>
<path fill="#E0A419" d="M5435 6799 c-97 -28 -150 -149 -110 -246 35 -84 96 -117 202 -111 83
6 139 35 173 91 28 45 26 122 -3 178 -41 79 -158 119 -262 88z"/>
<path fill="#E0A419" d="M4418 5971 c-70 -28 -113 -57 -156 -107 -47 -52 -67 -116 -59 -184
12 -97 64 -163 173 -216 53 -26 69 -29 159 -29 87 0 107 4 158 27 73 35 161
121 176 174 28 101 3 183 -77 254 -72 63 -143 91 -247 96 -63 3 -90 0 -127
-15z"/>
<path fill="#E0A419" d="M4961 4838 c-90 -44 -132 -149 -92 -230 56 -113 212 -148 323 -72 87
61 96 191 17 266 -64 63 -165 77 -248 36z"/>
<path fill="#E0A419" d="M3099 5985 c-84 -31 -167 -103 -195 -171 -8 -19 -14 -60 -14 -92 0
-154 135 -272 310 -272 219 0 376 192 300 368 -45 104 -174 183 -297 181 -38
0 -84 -6 -104 -14z"/>
<path fill="#E0A419" d="M805 5946 c-157 -73 -202 -253 -94 -371 58 -62 110 -85 195 -85 149
0 264 106 264 243 0 57 -33 119 -90 170 -79 71 -181 87 -275 43z"/>
<path fill="#E0A419" d="M1815 5027 c-67 -32 -110 -70 -143 -126 -23 -39 -27 -57 -27 -122 0
-71 2 -79 38 -132 63 -95 163 -143 277 -132 166 17 280 125 280 267 0 100 -55
184 -155 236 -74 38 -200 42 -270 9z"/>
<path fill="#E0A419" d="M3798 5005 c-99 -37 -159 -116 -165 -215 -4 -60 -2 -69 29 -120 53
-87 131 -126 233 -118 63 6 113 29 160 76 49 49 65 88 65 163 0 80 -29 132
-104 184 -46 31 -64 38 -118 41 -39 2 -77 -2 -100 -11z"/>
</g>
</svg>
